# xmcd
#
# Track frame offsets:
#	150
#	23851
#	44599
#	88829
#	112073
#	144818
#	175317
#	194790
#	227240
#	260581
#
# Disc length: 3821 seconds
#
# Revision: 1
# Processed by: cddbd v1.5.2PL0 Copyright (c) Steve Scherf et al.
# Submitted via: audiograbber 1.83.01
#
DISCID=930eeb0a
DTITLE=The Rolling Stones - First Lick - CD 2
DYEAR=2002
DGENRE=Rock
TTITLE0=Love Train
TTITLE1=Undercover Of The Night
TTITLE2=Can't You Hear Me Knocking
TTITLE3=Honky Tonk Woman
TTITLE4=(I Can't Get No) Satisfaction)
TTITLE5=Mannish Boy
TTITLE6=Neighbors
TTITLE7=Brown Sugar
TTITLE8=Sympathy For The Devil
TTITLE9=Jumping Jack Flash
EXTD=
EXTT0=
EXTT1=
EXTT2=
EXTT3=
EXTT4=
EXTT5=
EXTT6=
EXTT7=
EXTT8=
EXTT9=
PLAYORDER=
